General
Complete name : Taken 2 2012 TS NEWSOURCE x264 AAC-UNiQUE.mp4
Format : MPEG-4
Format profile : Base Media
Codec ID : isom
File size : 1 012 MiB
Duration : 1h 26mn
Overall bit rate mode : Variable
Overall bit rate : 1 645 Kbps
Encoded date : UTC 2012-10-09 19:12:29

Video
ID : 1
Format : AVC
Format/Info : Advanced Video Codec
Format profile : High@L4.1
Format settings, CABAC : Yes
Format settings, ReFrames : 3 frames
Codec ID : avc1
Codec ID/Info : Advanced Video Coding
Duration : 1h 26mn
Bit rate mode : Variable
Bit rate : 1 515 Kbps
Maximum bit rate : 40.0 Mbps
Width : 720 pixels
Height : 272 pixels
Display aspect ratio : 2.647
Frame rate mode : Constant
Frame rate : 25.000 fps
Color space : YUV
Chroma subsampling : 4:2:0
Bit depth : 8 bits
Scan type : Progressive
Bits/(Pixel*Frame) : 0.309
Stream size : 932 MiB (92%)
Writing library : x264 core 128 r2216 198a7ea

Audio
ID : 2
Format : AAC
Format/Info : Advanced Audio Codec
Format profile : LC
Codec ID : 40
Duration : 1h 26mn
Bit rate mode : Variable
Bit rate : 126 Kbps
Maximum bit rate : 149 Kbps
Channel(s) : 2 channels
Channel positions : Front: L R
Sampling rate : 44.1 KHz
Compression mode : Lossy
Stream size : 77.8 MiB (8%)
Language : English
Encoded date : UTC 2012-10-09 19:13:02

Source : 26K - Thanks!

Storyline
In Istanbul, retired CIA operative Bryan Mills and his wife are taken hostage by the father of a kidnapper Mills killed while rescuing his daughter.

iMDB: http://www.imdb.com/title/tt1397280/

 
http://imageshack.us/a/img35/4992/vlcsnap2012100920h16m19.png 
http://imageshack.us/a/img829/7900/vlcsnap2012100920h16m39.png 
http://imageshack.us/a/img844/9983/vlcsnap2012100920h19m42.png 
http://imageshack.us/a/img696/4705/vlcsnap2012100920h20m07.png 
http://imageshack.us/a/img5/8070/vlcsnap2012100920h22m36.png 
http://imageshack.us/a/img842/2962/vlcsnap2012100920h21m07.png 
http://imageshack.us/a/img542/7980/vlcsnap2012100920h26m43.png


Notes:
Mint source bro good job, so i just filtered it to my specs and did a slight resize, audio is nice line.

Enjoy another KICKASS UNiQUE RELEASE !!!!!!

Greets:
CM8, HP, LEGiON, 26K, TRiNiTY, mSD, HS, DQ1, ADTRG, CRYS, TnT, MR.FiXiT, iLLUMiNATi, INSPiRAL.
